#Comment line ignore any data following # character 
#Hierarchical Translation and Rotation (.htr) file 
[Header]	
#Header keywords are followed by a single value 
FileType HTR		#Single word string
DataType HTRS		#Translation followed by rotation and scale data
FileVersion 1		#integer
NumSegments 25		#integer
NumFrames 6		#integer
DataFrameRate 30		#integer, data frame rate in this file
EulerRotationOrder ZYX
CalibrationUnits mm
RotationUnits Degrees
GlobalAxisofGravity Y
BoneLengthAxis Y
ScaleFactor 1.00
[SegmentNames&Hierarchy]
#CHILD	PARENT
BN_Tick_Root GLOBAL
BN_Torso BN_Tick_Root
BN_L_Leg_Front01 BN_Torso
BN_L_Leg_Rear01 BN_Torso
BN_MetalTop BN_Torso
BN_Neck BN_Torso
BN_R_Leg_Front01 BN_Torso
BN_R_Leg_Rear01 BN_Torso
BN_Sack BN_Torso
BN_L_Leg_Front02 BN_L_Leg_Front01
BN_L_Leg_Front03 BN_L_Leg_Front02
BN_L_Leg_Rear02 BN_L_Leg_Rear01
BN_L_Leg_Rear03 BN_L_Leg_Rear02
BN_Head BN_Neck
BN_Needle BN_Head
BN_R_Leg_Front02 BN_R_Leg_Front01
BN_R_Leg_Front03 BN_R_Leg_Front02
BN_R_Leg_Rear02 BN_R_Leg_Rear01
BN_R_Leg_Rear03 BN_R_Leg_Rear02
BN_SackDef01 BN_Sack
BN_SackDef02 BN_Sack
BN_SackDef03 BN_Sack
BN_SackDef04 BN_Sack
BN_SackDef05 BN_Sack
BN_SackDef06 BN_Sack
[BasePosition]
#SegmentName Tx, Ty, Tz, Rx, Ry, Rz, BoneLength
BN_Tick_Root 0.000000 0.000000 0.000000 -90.000000 0.000000 0.000000 10.000000 
BN_Torso 0.000000 0.000000 0.000000 0.000000 0.000000 0.000000 10.000000 
BN_L_Leg_Front01 0.000000 0.000000 0.000000 0.000000 0.000000 0.000000 10.000000 
BN_L_Leg_Rear01 0.000000 0.000000 0.000000 0.000000 0.000000 0.000000 10.000000 
BN_MetalTop 0.000000 0.000000 0.000000 0.000000 0.000000 0.000000 10.000000 
BN_Neck 0.000000 0.000000 0.000000 0.000000 0.000000 0.000000 10.000000 
BN_R_Leg_Front01 0.000000 0.000000 0.000000 0.000000 0.000000 0.000000 10.000000 
BN_R_Leg_Rear01 0.000000 0.000000 0.000000 0.000000 0.000000 0.000000 10.000000 
BN_Sack 0.000000 0.000000 0.000000 0.000000 0.000000 0.000000 10.000000 
BN_L_Leg_Front02 0.000000 0.000000 0.000000 0.000000 0.000000 0.000000 10.000000 
BN_L_Leg_Front03 0.000000 0.000000 0.000000 0.000000 0.000000 0.000000 10.000000 
BN_L_Leg_Rear02 0.000000 0.000000 0.000000 0.000000 0.000000 0.000000 10.000000 
BN_L_Leg_Rear03 0.000000 0.000000 0.000000 0.000000 0.000000 0.000000 10.000000 
BN_Head 0.000000 0.000000 0.000000 0.000000 0.000000 0.000000 10.000000 
BN_Needle 0.000000 0.000000 0.000000 0.000000 0.000000 0.000000 10.000000 
BN_R_Leg_Front02 0.000000 0.000000 0.000000 0.000000 0.000000 0.000000 10.000000 
BN_R_Leg_Front03 0.000000 0.000000 0.000000 0.000000 0.000000 0.000000 10.000000 
BN_R_Leg_Rear02 0.000000 0.000000 0.000000 0.000000 0.000000 0.000000 10.000000 
BN_R_Leg_Rear03 0.000000 0.000000 0.000000 0.000000 0.000000 0.000000 10.000000 
BN_SackDef01 0.000000 0.000000 0.000000 0.000000 0.000000 0.000000 10.000000 
BN_SackDef02 0.000000 0.000000 0.000000 0.000000 0.000000 0.000000 10.000000 
BN_SackDef03 0.000000 0.000000 0.000000 0.000000 0.000000 0.000000 10.000000 
BN_SackDef04 0.000000 0.000000 0.000000 0.000000 0.000000 0.000000 10.000000 
BN_SackDef05 0.000000 0.000000 0.000000 0.000000 0.000000 0.000000 10.000000 
BN_SackDef06 0.000000 0.000000 0.000000 0.000000 0.000000 0.000000 10.000000 
#Beginning of Data. Separated by tabs
#Fr	Tx	Ty	Tz	Rx	Ry	Rz	SF
[BN_Tick_Root]
16 13.787180 -32.916019 -0.000004 0.000000 -0.000000 0.639149 35.686840
17 29.516491 -70.468262 -0.000008 0.000000 -0.000000 1.278378 76.400253
18 46.022327 -109.874802 -0.000012 0.000000 -0.000000 1.917625 119.123993
19 62.139656 -148.354111 -0.000016 0.000000 -0.000000 2.556854 160.842407
20 76.703712 -183.124649 -0.000020 0.000000 -0.000000 3.196023 198.539902
21 88.548912 -211.404480 -0.000024 0.000000 -0.000000 3.928182 229.200256
[BN_Torso]
16 14.429914 -17.066713 213.800430 5.433745 1.403764 -0.902883 214.965393
17 12.714215 -17.149424 213.800491 8.149158 2.122897 -1.658410 214.863693
18 10.479153 -15.762755 213.800537 10.854601 2.876442 -2.378942 214.636780
19 8.244093 -14.376095 213.800583 13.572379 3.579223 -3.149321 214.441895
20 7.570183 -17.181595 213.800613 16.282803 4.317636 -3.886086 214.623428
21 9.070383 -26.645742 213.800644 18.998362 5.035882 -4.733624 215.645493
[BN_L_Leg_Front01]
16 -68.477791 10.734189 -26.804373 -49.007706 44.139835 138.654343 74.316254
17 -68.477791 10.734189 -26.804373 -47.822392 43.121403 140.228088 74.316254
18 -68.477791 10.734189 -26.804373 -41.785484 52.056179 146.758636 74.316254
19 -68.477791 10.734189 -26.804373 -34.868343 58.574158 153.160812 74.316254
20 -68.477791 10.734189 -26.804373 -33.949829 58.151043 152.178467 74.316254
21 -68.477791 10.734189 -26.804373 -32.711868 58.135601 151.905701 74.316254
[BN_L_Leg_Rear01]
16 -72.133743 -73.994843 -18.268616 72.068962 44.481277 -147.230377 104.939293
17 -72.133743 -73.994843 -18.268616 76.196869 44.831200 -151.504929 104.939293
18 -72.133743 -73.994843 -18.268616 79.414711 36.691498 -148.556717 104.939293
19 -72.133743 -73.994843 -18.268616 82.265579 30.596525 -146.034393 104.939293
20 -72.133743 -73.994843 -18.268616 85.168549 33.364155 -139.370743 104.939293
21 -72.133743 -73.994843 -18.268616 88.875923 36.847527 -136.107483 104.939293
[BN_MetalTop]
16 0.000008 13.737477 26.403606 90.000008 -12.928561 -89.999992 29.763546
17 0.000008 13.737477 26.403606 90.000008 -12.928561 -89.999992 29.763546
18 0.000008 13.737477 26.403606 90.000008 -12.928561 -89.999992 29.763546
19 0.000008 13.737477 26.403606 90.000008 -12.928561 -89.999992 29.763546
20 0.000008 13.737477 26.403606 90.000008 -12.928561 -89.999992 29.763546
21 0.000008 13.737477 26.403606 90.000008 -12.928561 -89.999992 29.763546
[BN_Neck]
16 0.000014 95.233284 10.002091 -83.014862 -81.111488 75.894089 95.757088
17 0.000014 95.233284 10.002091 -81.054749 -80.416817 74.935646 95.757088
18 0.000014 95.233284 10.002091 -79.291206 -79.717300 74.175034 95.757088
19 0.000014 95.233284 10.002091 -77.687820 -79.014343 73.575691 95.757088
20 0.000014 95.233284 10.002091 -76.216454 -78.308731 73.109329 95.757088
21 0.000014 95.233284 10.002091 -74.855240 -77.601471 72.753899 95.757088
[BN_R_Leg_Front01]
16 68.477768 10.734107 -26.804314 45.551147 46.973568 49.623013 74.316193
17 68.477768 10.734107 -26.804314 44.489262 43.039211 48.592762 74.316193
18 68.477768 10.734107 -26.804314 42.700623 40.975616 47.129475 74.316193
19 68.477768 10.734107 -26.804314 35.753078 47.847069 39.250378 74.316193
20 68.477768 10.734107 -26.804314 28.271147 53.437366 33.635597 74.316193
21 68.477768 10.734107 -26.804314 26.687563 54.223267 37.932049 74.316193
[BN_R_Leg_Rear01]
16 72.133751 -73.994873 -18.268644 -69.783737 27.409739 -44.705189 104.939331
17 72.133751 -73.994873 -18.268644 -70.928497 28.410282 -46.512779 104.939331
18 72.133751 -73.994873 -18.268644 -72.191139 30.363457 -47.146530 104.939331
19 72.133751 -73.994873 -18.268644 -74.191856 30.167501 -45.858597 104.939331
20 72.133751 -73.994873 -18.268644 -76.563736 30.500681 -44.318581 104.939331
21 72.133751 -73.994873 -18.268644 -78.083672 24.179575 -44.774910 104.939331
[BN_Sack]
16 -0.000000 -78.024918 33.657791 89.999092 1.915357 -90.001999 84.974907
17 -0.000000 -78.024918 33.657791 90.000000 0.029670 -90.003319 84.974907
18 -0.000000 -78.024918 33.657791 89.999275 -1.557249 -89.997673 84.974907
19 -0.000000 -78.024918 33.657791 89.996750 -2.746817 -90.000000 84.974907
20 -0.000000 -78.024918 33.657791 89.997116 -3.598937 -89.998695 84.974907
21 -0.000000 -78.024918 33.657791 89.998817 -4.292605 -90.002014 84.974907
[BN_L_Leg_Front02]
16 142.805023 -0.000015 -0.000104 -3.699235 -7.037446 -90.364250 142.805023
17 142.805023 -0.000015 -0.000104 -3.146657 -8.036445 -97.826004 142.805023
18 142.805023 -0.000015 -0.000104 -1.747741 -4.563914 -98.168900 142.805023
19 142.805023 -0.000015 -0.000104 0.189079 0.247844 -88.285149 142.805023
20 142.805023 -0.000015 -0.000104 0.197761 0.102012 -74.189590 142.805023
21 142.805023 -0.000015 -0.000104 0.184731 -0.066045 -57.461624 142.805023
[BN_L_Leg_Front03]
16 124.143021 -0.000045 0.000007 0.350855 -0.444352 97.738678 124.143021
17 124.143021 -0.000045 0.000007 0.354010 -0.429000 106.379379 124.143021
18 124.143021 -0.000045 0.000007 0.353085 -0.429762 106.626259 124.143021
19 124.143021 -0.000045 0.000007 0.353759 -0.449523 95.004578 124.143021
20 124.143021 -0.000045 0.000007 0.352738 -0.433856 76.574799 124.143021
21 124.143021 -0.000045 0.000007 0.351982 -0.352878 52.320393 124.143021
[BN_L_Leg_Rear02]
16 139.939041 0.000075 -0.000022 1.250938 -2.280252 84.626274 139.939041
17 139.939041 0.000075 -0.000022 2.089306 -4.162446 87.001381 139.939041
18 139.939041 0.000075 -0.000022 2.090955 -5.654893 94.394844 139.939041
19 139.939041 0.000075 -0.000022 1.964612 -6.227097 97.669029 139.939041
20 139.939041 0.000075 -0.000022 1.553178 -3.623264 90.972527 139.939041
21 139.939041 0.000075 -0.000022 0.112349 -0.208929 85.341995 139.939041
[BN_L_Leg_Rear03]
16 142.839615 0.000179 -0.000060 0.000227 -0.002336 -101.110626 142.839615
17 142.839615 0.000179 -0.000060 0.000290 -0.002329 -104.195778 142.839615
18 142.839615 0.000179 -0.000060 0.000470 -0.002300 -113.110970 142.839615
19 142.839615 0.000179 -0.000060 0.000544 -0.002283 -116.794693 142.839615
20 142.839615 0.000179 -0.000060 0.000388 -0.002315 -109.031708 142.839615
21 142.839615 0.000179 -0.000060 0.000245 -0.002334 -101.991653 142.839615
[BN_Head]
16 57.062447 -0.000030 0.000000 -6.961518 2.164719 -16.078550 57.062447
17 57.062447 -0.000030 0.000000 -5.922081 2.490762 -15.445428 57.062447
18 57.062447 -0.000030 0.000000 -4.878467 2.805364 -14.806097 57.062447
19 57.062447 -0.000030 0.000000 -3.830987 3.108295 -14.160881 57.062447
20 57.062447 -0.000030 0.000000 -2.779969 3.399341 -13.510109 57.062447
21 57.062447 -0.000030 0.000000 -1.725758 3.678304 -12.854129 57.062447
[BN_Needle]
16 33.915253 69.677582 -0.000070 0.000003 0.000030 87.896805 77.493286
17 33.915253 69.677582 -0.000069 0.000003 0.000030 87.896805 77.493286
18 33.915249 69.677582 -0.000069 0.000003 0.000030 87.896805 77.493286
19 33.915249 69.677582 -0.000069 0.000003 0.000030 87.896805 77.493286
20 33.915249 69.677582 -0.000068 0.000003 0.000030 87.896805 77.493286
21 33.915245 69.677582 -0.000068 0.000003 0.000030 87.896805 77.493286
[BN_R_Leg_Front02]
16 142.804947 -0.000060 0.000060 4.032373 -4.585034 74.653435 142.804947
17 142.804947 -0.000060 0.000060 4.193444 -6.843330 85.994301 142.804947
18 142.804947 -0.000060 0.000060 3.751105 -7.862979 92.966339 142.804947
19 142.804947 -0.000060 0.000060 2.141854 -4.463126 92.684006 142.804947
20 142.804947 -0.000060 0.000060 -0.193008 0.211604 84.691132 142.804947
21 142.804947 -0.000060 0.000060 -0.206617 0.109582 74.535233 142.804947
[BN_R_Leg_Front03]
16 124.143005 -0.000060 -0.000156 -0.350952 -0.437339 -77.379456 124.143005
17 124.143005 -0.000060 -0.000156 -0.350956 -0.446918 -92.392448 124.143005
18 124.143005 -0.000060 -0.000156 -0.355111 -0.440116 -100.864532 124.143005
19 124.143005 -0.000060 -0.000156 -0.353235 -0.441725 -100.363182 124.143005
20 124.143005 -0.000060 -0.000156 -0.351266 -0.448023 -90.499664 124.143005
21 124.143005 -0.000060 -0.000156 -0.352206 -0.436329 -77.050316 124.143005
[BN_R_Leg_Rear02]
16 139.939011 -0.000149 0.000015 -3.313246 -5.598612 -82.464569 139.939011
17 139.939011 -0.000149 0.000015 -2.485783 -3.036613 -72.833763 139.939011
18 139.939011 -0.000149 0.000015 -0.159507 -0.174932 -69.535095 139.939011
19 139.939011 -0.000149 0.000015 -0.123562 -0.202475 -81.605942 139.939011
20 139.939011 -0.000149 0.000015 -0.084848 -0.221600 -93.159805 139.939011
21 139.939011 -0.000149 0.000015 -0.613135 -1.725343 -95.317467 139.939011
[BN_R_Leg_Rear03]
16 142.839417 0.000075 0.000119 0.002341 -0.000174 98.487617 142.839417
17 142.839417 0.000075 0.000119 0.002345 0.000099 85.153755 142.839417
18 142.839417 0.000075 0.000119 0.002339 0.000199 80.290497 142.839417
19 142.839417 0.000075 0.000119 0.002343 -0.000146 97.135780 142.839417
20 142.839417 0.000075 0.000119 0.002306 -0.000439 111.558968 142.839417
21 142.839417 0.000075 0.000119 0.002296 -0.000489 114.058640 142.839417
[BN_SackDef01]
16 249.782272 -3.760844 42.949425 -128.408218 -44.374973 -11.740845 253.475800
17 249.782272 -3.760844 42.949425 -128.408218 -44.374973 -11.740845 253.475800
18 249.782272 -3.760844 42.949425 -128.408218 -44.374973 -11.740845 253.475800
19 249.782272 -3.760844 42.949425 -128.408218 -44.374973 -11.740845 253.475800
20 249.782272 -3.760844 42.949425 -128.408218 -44.374973 -11.740845 253.475800
21 249.782272 -3.760844 42.949425 -128.408218 -44.374973 -11.740845 253.475800
[BN_SackDef02]
16 138.789795 -62.131748 45.674385 32.077126 -27.375721 -88.781525 158.773758
17 138.789795 -62.131748 45.674385 32.077126 -27.375721 -88.781525 158.773758
18 138.789795 -62.131748 45.674385 32.077126 -27.375721 -88.781525 158.773758
19 138.789795 -62.131748 45.674385 32.077126 -27.375721 -88.781525 158.773758
20 138.789795 -62.131748 45.674385 32.077126 -27.375721 -88.781525 158.773758
21 138.789795 -62.131748 45.674385 32.077126 -27.375721 -88.781525 158.773758
[BN_SackDef03]
16 249.782272 -3.760785 -42.949661 18.144459 44.375008 -11.740894 253.475845
17 249.782272 -3.760785 -42.949661 18.144459 44.375008 -11.740894 253.475845
18 249.782272 -3.760785 -42.949661 18.144459 44.375008 -11.740894 253.475845
19 249.782272 -3.760785 -42.949661 18.144459 44.375008 -11.740894 253.475845
20 249.782272 -3.760785 -42.949661 18.144459 44.375008 -11.740894 253.475845
21 249.782272 -3.760785 -42.949661 18.144459 44.375008 -11.740894 253.475845
[BN_SackDef04]
16 138.789780 -62.131645 -45.674473 146.059982 27.375723 -88.781555 158.773743
17 138.789780 -62.131645 -45.674473 146.059982 27.375723 -88.781555 158.773743
18 138.789780 -62.131645 -45.674473 146.059982 27.375723 -88.781555 158.773743
19 138.789780 -62.131645 -45.674473 146.059982 27.375723 -88.781555 158.773743
20 138.789780 -62.131645 -45.674473 146.059982 27.375723 -88.781555 158.773743
21 138.789780 -62.131645 -45.674473 146.059982 27.375723 -88.781555 158.773743
[BN_SackDef05]
16 118.790161 46.167137 -63.831196 0.155741 51.314110 90.605110 142.537460
17 118.790161 46.167137 -63.831196 0.155741 51.314110 90.605110 142.537460
18 118.790161 46.167137 -63.831196 0.155741 51.314110 90.605110 142.537460
19 118.790161 46.167137 -63.831196 0.155741 51.314110 90.605110 142.537460
20 118.790161 46.167137 -63.831196 0.155741 51.314110 90.605110 142.537460
21 118.790161 46.167137 -63.831196 0.155741 51.314110 90.605110 142.537460
[BN_SackDef06]
16 118.790207 46.167194 63.831219 152.058487 -51.314072 90.605019 142.537537
17 118.790207 46.167194 63.831219 152.058487 -51.314072 90.605019 142.537537
18 118.790207 46.167194 63.831219 152.058487 -51.314072 90.605019 142.537537
19 118.790207 46.167194 63.831219 152.058487 -51.314072 90.605019 142.537537
20 118.790207 46.167194 63.831219 152.058487 -51.314072 90.605019 142.537537
21 118.790207 46.167194 63.831219 152.058487 -51.314072 90.605019 142.537537
